<svg width="103" height="79" viewBox="0 0 103 79" fill="none" xmlns="http://www.w3.org/2000/svg">
<g clip-path="url(#clip0_514_28133)">
<path d="M18.8135 24.456C17.6065 25.8292 15.6753 26.9093 13.744 26.755C13.5026 24.9034 14.4521 22.9284 15.5626 21.7249C16.7696 20.3208 18.8779 19.3179 20.5999 19.2407C20.7931 21.154 20.0045 23.0519 18.8135 24.456ZM20.5678 27.1099C17.7674 26.9556 15.3695 28.6374 14.0498 28.6374C12.6979 28.6374 10.6701 27.187 8.44916 27.2333C5.56838 27.2796 2.89682 28.838 1.43228 31.3222C-1.59334 36.306 0.643691 43.6659 3.57275 47.7239C5.0051 49.7298 6.71103 51.9362 8.96416 51.8591C11.1046 51.7819 11.9415 50.5321 14.5165 50.5321C17.1076 50.5321 17.864 51.8591 20.1171 51.8282C22.4507 51.7819 23.9153 49.8224 25.3476 47.8165C26.9731 45.5329 27.649 43.3265 27.6812 43.203C27.6329 43.1567 23.1749 41.5212 23.1267 36.5837C23.0784 32.4485 26.6512 30.489 26.8121 30.3655C24.8004 27.4956 21.6621 27.187 20.5678 27.1099ZM36.7259 21.5243V51.5968H41.6023V41.3206H48.3456C54.5095 41.3206 58.8226 37.2626 58.8226 31.3993C58.8226 25.536 54.5738 21.5243 48.5065 21.5243H36.7259ZM41.6023 25.4589H47.219C51.4517 25.4589 53.8657 27.619 53.8657 31.4147C53.8657 35.2105 51.4517 37.4015 47.2029 37.4015H41.6023V25.4589ZM67.7063 51.8282C70.7642 51.8282 73.5967 50.347 74.8842 47.9862H74.9807V51.5968H79.487V36.63C79.487 32.2942 75.8659 29.486 70.2974 29.486C65.1313 29.486 61.301 32.3251 61.1562 36.2134H65.5498C65.9199 34.3618 67.7063 33.1429 70.1526 33.1429C73.1299 33.1429 74.8037 34.4698 74.8037 36.9231V38.5896L68.7203 38.9444C63.0713 39.2685 60.0135 41.4903 60.0135 45.3478C60.0296 49.236 63.184 51.8282 67.7063 51.8282ZM69.026 48.264C66.4349 48.264 64.7773 47.0605 64.7773 45.2397C64.7773 43.3419 66.3706 42.2464 69.4123 42.0767L74.8198 41.7526V43.4499C74.8198 46.2581 72.3252 48.264 69.026 48.264ZM85.5221 59.7745C90.2698 59.7745 92.5068 58.031 94.4542 52.7694L103 29.7792H98.0431L92.3137 47.5388H92.2171L86.4877 29.7792H81.4021L89.6421 51.6739L89.1915 53.0009C88.4512 55.2536 87.2441 56.1331 85.0876 56.1331C84.7013 56.1331 83.961 56.0868 83.6552 56.056V59.6665C83.9449 59.7282 85.152 59.7745 85.5221 59.7745Z" fill="black"/>
</g>
<defs>
<clipPath id="clip0_514_28133">
<rect width="103" height="79" fill="white"/>
</clipPath>
</defs>
</svg>
