<svg width="52" height="52" viewBox="0 0 52 52" fill="none" xmlns="http://www.w3.org/2000/svg">
<g clip-path="url(#clip0_514_28135)">
<path d="M44.2 0H7.8C3.49218 0 0 3.49218 0 7.8V44.2C0 48.5078 3.49218 52 7.8 52H44.2C48.5078 52 52 48.5078 52 44.2V7.8C52 3.49218 48.5078 0 44.2 0Z" fill="black"/>
<path d="M12.1875 8.83594C11.849 9.3776 11.6458 10.0208 11.5781 10.7656V41.3359C11.6458 42.0807 11.849 42.724 12.1875 43.2656L29.3516 26" fill="#2FCFFF"/>
<path d="M29.3516 26L35.2422 31.8906L41.9453 28.0312C44.3151 26.7448 44.3151 25.4245 41.9453 24.0703L35.2422 20.2109" fill="#FDCC00"/>
<path d="M12.1875 43.2656C13.2708 43.7396 14.2526 43.7396 15.1328 43.2656L35.3438 31.8906L29.4531 26" fill="#F0304B"/>
<path d="M12.1875 8.83594L29.3516 26L35.2422 20.2109L15.1328 8.83594C14.0495 8.36198 13.0677 8.36198 12.1875 8.83594Z" fill="#43E475"/>
</g>
<defs>
<clipPath id="clip0_514_28135">
<rect width="52" height="52" fill="white"/>
</clipPath>
</defs>
</svg>
