<svg width="45" height="43" viewBox="0 0 45 43" fill="none" xmlns="http://www.w3.org/2000/svg">
<path d="M44.5535 21.3237C44.5535 24.3144 44.4906 27.3136 44.5715 30.3042C44.7062 35.5979 41.2293 39.6886 36.8 41.5104C35.0211 42.2409 33.1523 42.6276 31.2207 42.6276C25.1742 42.6362 19.1187 42.7136 13.0723 42.6018C8.51719 42.5159 4.7707 40.694 2.08437 37.1018C0.673828 35.2112 0 33.0628 0 30.7339C0 24.5722 0 18.419 0 12.2573C0 7.22997 2.56055 3.71513 7.10664 1.42919C9.0832 0.440912 11.2305 0.0198183 13.4676 0.0112245C19.3344 0.0112245 25.2102 -0.0231505 31.077 0.028412C35.632 0.062787 39.4324 1.72997 42.2355 5.23622C43.7988 7.1956 44.5535 9.44716 44.5535 11.9222C44.5535 15.0503 44.5535 18.187 44.5535 21.3237ZM3.31523 21.3237C3.31523 24.4776 3.31523 27.6229 3.31523 30.7768C3.31523 32.1862 3.65664 33.5097 4.42031 34.7042C6.42383 37.8409 9.45156 39.3706 13.207 39.4308C19.2355 39.5167 25.273 39.4651 31.3105 39.4479C32.793 39.4479 34.2305 39.1558 35.5691 38.5456C39.2168 36.8784 41.2562 34.2229 41.2383 30.2354C41.2023 24.1339 41.2293 18.0323 41.2293 11.9308C41.2293 10.2034 40.7172 8.62216 39.648 7.22997C37.5816 4.55732 34.7246 3.24247 31.3105 3.2081C25.291 3.13935 19.2715 3.18232 13.252 3.19091C11.9672 3.19091 10.7273 3.44013 9.52344 3.86982C6.21719 5.04716 3.14453 8.02919 3.28828 12.4206C3.39609 15.394 3.31523 18.3589 3.31523 21.3237Z" fill="black"/>
<path d="M22.3262 30.4331C16.5312 30.4331 11.8594 26.0159 11.8504 20.5159C11.8414 15.1019 16.5492 10.6675 22.3082 10.6675C28.0852 10.6589 32.775 15.0847 32.784 20.5417C32.784 25.9901 28.1031 30.4245 22.3262 30.4331ZM22.3262 27.2534C26.2703 27.2534 29.4687 24.237 29.4598 20.5245C29.4508 16.8464 26.2523 13.8386 22.3262 13.8386C18.382 13.8386 15.1656 16.8378 15.1656 20.5417C15.1746 24.2542 18.382 27.262 22.3262 27.2534Z" fill="black"/>
<path d="M33.9969 7.65967C35.2098 7.65967 36.198 8.64795 36.198 9.85967C36.1891 11.0714 35.1918 12.0511 33.9789 12.0425C32.784 12.0339 31.8047 11.0542 31.8047 9.86826C31.7957 8.65654 32.784 7.65967 33.9969 7.65967Z" fill="black"/>
</svg>
