<svg width="109" height="50" viewBox="0 0 109 50" fill="none" xmlns="http://www.w3.org/2000/svg">
<g clip-path="url(#clip0_514_28127)">
<path d="M109 0.286133H0V49.9999H109V0.286133Z" fill="white"/>
<path d="M107.183 41.9219H1.81512V48.7045H107.183V41.9219Z" fill="#FCB315"/>
<path d="M107.183 1.59033H1.81512V8.37295H107.183V1.59033Z" fill="#0D357F"/>
<path d="M53.5902 15.8455L48.0362 34.4886H41.3186L46.8731 15.8455H53.5902ZM81.8515 27.8835L85.3879 20.8824L87.4221 27.8835H81.8515ZM89.3503 34.4886H95.5613L90.1345 15.8455H84.4049C83.1131 15.8455 82.0251 16.3831 81.5432 17.2121L71.4632 34.4886H78.5184L79.9188 31.7042H88.5358L89.3503 34.4886ZM71.8134 28.402C71.8427 23.4821 62.3405 23.2092 62.4036 21.011C62.4243 20.3429 63.3114 19.6313 65.2522 19.4495C66.214 19.3603 68.8684 19.2886 71.8775 20.2839L73.0543 16.3288C71.4375 15.9092 69.3579 15.5049 66.7706 15.5049C60.1297 15.5049 55.4578 18.0375 55.4205 21.6672C55.3781 24.3513 58.7581 25.8476 61.2989 26.7415C63.9185 27.6553 64.7965 28.2415 64.7839 29.0578C64.7657 30.3085 62.6942 30.8621 60.7665 30.8832C57.387 30.9208 55.4286 30.2274 53.8672 29.7049L52.6481 33.7919C54.22 34.3085 57.1171 34.7582 60.1161 34.7813C67.1758 34.7813 71.7927 32.2781 71.8134 28.402ZM43.9916 15.8455L33.1073 34.4886H26.0071L20.6505 19.61C20.326 18.6951 20.0429 18.3589 19.0553 17.9723C17.44 17.3422 14.773 16.7531 12.4285 16.3864L12.587 15.8455H24.0179C25.4737 15.8455 26.7837 16.5411 27.1168 17.7451L29.9463 28.5339L36.9344 15.8455H43.9916Z" fill="#0D357F"/>
</g>
<defs>
<clipPath id="clip0_514_28127">
<rect width="109" height="50" fill="white"/>
</clipPath>
</defs>
</svg>
