<svg width="47" height="35" viewBox="0 0 47 35" fill="none" xmlns="http://www.w3.org/2000/svg">
<path d="M37.6 0H9.4C4.21748 0 0 4.20926 0 9.38185V25.0183C0 30.1907 4.21748 34.4001 9.4 34.4001H37.6C42.7825 34.4001 47 30.1907 47 25.0183V9.38185C47 4.20926 42.7825 0 37.6 0ZM44.9111 25.0183C44.9111 29.042 41.6316 32.3152 37.6 32.3152H9.4C5.36844 32.3152 2.08889 29.042 2.08889 25.0183V9.38185C2.08889 5.35808 5.36844 2.08486 9.4 2.08486H37.6C41.6316 2.08486 44.9111 5.35808 44.9111 9.38185V25.0183ZM16.7111 26.0199L32.0174 17.2011L16.7111 8.38005V26.0199ZM18.8 11.9911L27.8397 17.2011L18.8 22.4091V11.9911Z" fill="black"/>
</svg>
